<?xml version="1.0" encoding="UTF-8" standalone="no"?>
<svg
   xmlns:dc="http://purl.org/dc/elements/1.1/"
   xmlns:cc="http://creativecommons.org/ns#"
   xmlns:rdf="http://www.w3.org/1999/02/22-rdf-syntax-ns#"
   xmlns:svg="http://www.w3.org/2000/svg"
   xmlns="http://www.w3.org/2000/svg"
   xmlns:sodipodi="http://sodipodi.sourceforge.net/DTD/sodipodi-0.dtd"
   xmlns:inkscape="http://www.inkscape.org/namespaces/inkscape"
   aria-hidden="true"
   focusable="false"
   data-prefix="fas"
   data-icon="volume-up"
   class="svg-inline--fa fa-volume-up fa-w-18"
   role="img"
   viewBox="0 0 576 512"
   version="1.1"
   id="svg4"
   sodipodi:docname="volume2dark.svg"
   inkscape:version="1.0 (4035a4fb49, 2020-05-01)">
  <metadata
     id="metadata10">
    <rdf:RDF>
      <cc:Work
         rdf:about="">
        <dc:format>image/svg+xml</dc:format>
        <dc:type
           rdf:resource="http://purl.org/dc/dcmitype/StillImage" />
      </cc:Work>
    </rdf:RDF>
  </metadata>
  <defs
     id="defs8" />
  <sodipodi:namedview
     inkscape:document-rotation="0"
     pagecolor="#ffffff"
     bordercolor="#666666"
     borderopacity="1"
     objecttolerance="10"
     gridtolerance="10"
     guidetolerance="10"
     inkscape:pageopacity="0"
     inkscape:pageshadow="2"
     inkscape:window-width="2560"
     inkscape:window-height="1377"
     id="namedview6"
     showgrid="false"
     inkscape:zoom="1.4355469"
     inkscape:cx="288"
     inkscape:cy="256"
     inkscape:window-x="1912"
     inkscape:window-y="-8"
     inkscape:window-maximized="1"
     inkscape:current-layer="svg4" />
  <path
     style="fill:#ff7597;fill-opacity:1"
     d="m 338.23,179.13 c -11.58,-6.33 -26.19,-2.16 -32.61,9.45 -6.39,11.61 -2.16,26.2 9.45,32.61 12.91,7.09 20.93,20.44 20.93,34.81 0,14.38 -8.02,27.72 -20.92,34.81 -11.61,6.41 -15.84,21 -9.45,32.61 6.43,11.66 21.05,15.8 32.61,9.45 28.23,-15.55 45.77,-45 45.77,-76.88 0,-31.88 -17.54,-61.32 -45.78,-76.86 z"
     id="path841" />
  <path
     style="fill:#ff7597;fill-opacity:1"
     d="m 480,256 c 0,-63.53 -32.06,-121.94 -85.77,-156.24 -11.19,-7.14 -26.03,-3.82 -33.12,7.46 -7.09,11.28 -3.78,26.21 7.41,33.36 39.75,25.39 63.48,68.53 63.48,115.42 0,46.89 -23.73,90.03 -63.48,115.42 -11.19,7.14 -14.5,22.07 -7.41,33.36 6.51,10.36 21.12,15.14 33.12,7.46 C 447.94,377.94 480,319.54 480,256 Z"
     id="path839" />
  <path
     style="fill:#ff7597;fill-opacity:1"
     d="M 215.03,71.05 126.06,160 H 24 C 10.74,160 0,170.74 0,184 v 144 c 0,13.25 10.74,24 24,24 h 102.06 l 88.97,88.95 C 230.06,455.98 256,445.42 256,423.98 V 88.02 C 256,66.56 230.04,56.04 215.03,71.05 Z"
     id="path2" />
</svg>
